# AST/ASF file generated using VICON BodyLanguage
# -----------------------------------------------
:version 1.10
:name VICON
:units
  mass 1.0
  length 0.45
  angle deg
:documentation
   .ast/.asf automatically generated from VICON data using
   VICON BodyBuilder and BodyLanguage model FoxedUp or BRILLIANT.MOD
:root
   order TX TY TZ RX RY RZ
   axis XYZ
   position 0 0 0  
   orientation 0 0 0 
:bonedata
  begin
     id 1 
     name lhipjoint
     direction 0.671379 -0.66392 0.329334 
     length 2.38647 
     axis 0 0 0  XYZ
  end
  begin
     id 2 
     name lfemur
     direction 0.34202 -0.939693 0  
     length 6.48179  
     axis 0 0 20  XYZ
    dof rx ry rz
    limits (-160.0 20.0)
           (-70.0 70.0)
           (-60.0 70.0)
  end
  begin
     id 3 
     name ltibia
     direction 0.34202 -0.939693 0   
     length 6.86524   
     axis 0 0 20   XYZ
    dof rx
    limits (-10.0 170.0)
  end
  begin
     id 4 
     name lfoot
     direction 0.204886 -0.562919 0.800715   
     length 1.73031   
     axis -90 7.62852e-016 20   XYZ
    dof rx rz
    limits (-45.0 90.0)
           (-70.0 20.0)
  end
  begin
     id 5 
     name ltoes
     direction 1.53548e-011 -4.21841e-011 1   
     length 0.828161   
     axis -90 7.62852e-016 20   XYZ
    dof rx
    limits (-90.0 20.0)
  end
  begin
     id 6 
     name rhipjoint
     direction -0.662732 -0.670855 0.332775   
     length 2.3618  
     axis 0 0 0  XYZ 
  end
  begin
     id 7 
     name rfemur
     direction -0.34202 -0.939693 0   
     length 6.3025   
     axis 0 0 -20   XYZ
    dof rx ry rz
    limits (-160.0 20.0)
           (-70.0 70.0)
           (-70.0 60.0)
  end
  begin
     id 8 
     name rtibia
     direction -0.34202 -0.939693 0   
     length 6.8732   
     axis 0 0 -20   XYZ
    dof rx
    limits (-10.0 170.0)
 end
 begin
     id 9 
     name rfoot
     direction -0.173856 -0.477665 0.861168   
     length 1.54784  
     axis -90 -7.62852e-016 -20   XYZ
    dof rx rz
    limits (-45.0 90.0)
           (-20.0 70.0)
  end
  begin
     id 10 
     name rtoes
     direction -1.53562e-011 -4.21802e-011 1   
     length 0.759618   
     axis -90 -7.62852e-016 -20   XYZ
    dof rx
    limits (-90.0 20.0)
  end
  begin
     id 11 
     name lowerback
     direction -0.0278357 0.999497 -0.0151789   
     length 1.97203   
     axis 0 0 0   XYZ
    dof rx ry rz
    limits (-20.0 45.0)
           (-30.0 30.0)
           (-30.0 30.0)
  end
  begin
     id 12 
     name upperback
     direction -0.00360622 0.997542 0.0699804   
     length 1.94709   
     axis 0 0 0   XYZ
    dof rx ry rz
    limits (-20.0 45.0)
           (-30.0 30.0)
           (-30.0 30.0)
  end
  begin
     id 13 
     name thorax
     direction 0.00907706 0.997048 0.0762461   
     length 1.95722   
     axis 0 0 0   XYZ
    dof rx ry rz
    limits (-20.0 45.0)
           (-30.0 30.0)
           (-30.0 30.0)
  end
  begin
     id 14 
     name lowerneck
     direction -0.0481835 0.99872 -0.0153927   
     length 1.63078   
     axis 0 0 0   XYZ
    dof rx ry rz
    limits (-20.0 45.0)
           (-30.0 30.0)
           (-30.0 30.0)
  end
  begin
     id 15 
     name upperneck
     direction 0.0859716 0.979226 -0.183644   
     length 1.62591   
     axis 0 0 0   XYZ
    dof rx ry rz
    limits (-20.0 45.0)
           (-30.0 30.0)
           (-30.0 30.0)
  end
  begin
     id 16
     name head
     direction 0.0324821 0.997629 -0.0606773  
     length 1.64811  
     axis 0 0 0   XYZ
    dof rx ry rz
    limits (-20.0 45.0)
           (-30.0 30.0)
           (-30.0 30.0)
  end
  begin
     id 17 
     name lclavicle
     direction 0.939609 0.311019 0.142835  
     length 3.70647  
     axis 0 0 0   XYZ
    dof ry rz
    limits (-20.0 10.0)
           (0.0 20.0)
  end
  begin
     id 18 
     name lhumerus
     direction 1 -4.48963e-011 -1.59838e-027   
     length 4.59207   
     axis 180 -30 -90   XYZ
    dof rx ry rz
    limits (-60.0 90.0)
           (-90.0 90.0)
           (-90.0 90.0)
  end
  begin
     id 19
     name lradius
     direction 1 -4.48957e-011 -1.3483e-026   
     length 2.98109   
     axis 180 -30 -90   XYZ
    dof rx
    limits (-10.0 170.0)
  end
  begin
     id 20
     name lwrist
     direction 1 -4.48954e-011 -3.11579e-026   
     length 1.49055   
     axis 2.00652e-014 90 90   XYZ
    dof ry
    limits (-180.0 0.0)
 end
  begin
     id 21 
     name lhand
     direction 1 -4.4911e-011 -6.23158e-026   
     length 0.480203   
     axis 3.97628e-014 90 90   XYZ
    dof rx rz
    limits (-90.0 90.0)
           (-45.0 45.0)
  end
  begin
     id 22 
     name lfingers
     direction 1 -4.48893e-011 -1.24632e-025   
     length 0.387152   
     axis 7.95256e-014 90 90   XYZ
    dof rx
    limits (0.0 90.0)
  end
  begin
     id 23
     name lthumb
     direction 0.707107 -6.35013e-011 0.707107   
     length 0.555875   
     axis -90 45 2.85299e-015   XYZ
    dof rx rz
    limits (-45.0 45.0)
           (-45.0 45.0)
  end
  begin
     id 24 
     name rclavicle
     direction -0.950396 0.30392 0.0661859   
     length 3.70894  
     axis 0 0 0   XYZ 
    dof ry rz
    limits (-10.0 20.0)
           (-20.0 0.0)
  end
  begin
     id 25 
     name rhumerus
     direction -1 -4.48957e-011 -2.96677e-027  
     length 4.76508   
     axis 180 30 90   XYZ
    dof rx ry rz
    limits (-90.0 60.0)
           (-90.0 90.0)
           (-90.0 90.0)
  end
  begin
     id 26 
     name rradius
     direction -1 -4.48974e-011 -1.44501e-026   
     length 2.78902   
     axis 180 30 90   XYZ
    dof rx
    limits (-10.0 170.0)
  end
  begin
     id 27 
     name rwrist
     direction -1 -4.48978e-011 -3.11579e-026   
     length 1.39451   
     axis 2.00652e-014 -90 -90   XYZ
    dof ry
    limits (-180.0 0.0)
  end
  begin
     id 28
     name rhand
     direction -1 -4.48956e-011 -6.23158e-026   
     length 0.721303   
     axis 3.97628e-014 -90 -90   XYZ
    dof rx rz
    limits (-90.0 90.0)
           (-45.0 45.0)
  end
  begin
     id 29
     name rfingers
     direction -1 -4.4899e-011 -1.24632e-025   
     length 0.581533   
     axis 7.95256e-014 -90 -90   XYZ
    dof rx
    limits (0.0 90.0)
  end
  begin
     id 30
     name rthumb
     direction -0.707107 -6.34911e-011 0.707107   
     length 0.834968   
     axis -90 -45 -2.85299e-015   XYZ
    dof rx rz
    limits (-45.0 45.0)
           (-45.0 45.0)
  end
:hierarchy
  begin
    root lhipjoint rhipjoint lowerback
    lhipjoint lfemur
    lfemur ltibia
    ltibia lfoot
    lfoot ltoes
    rhipjoint rfemur
    rfemur rtibia
    rtibia rfoot
    rfoot rtoes
    lowerback upperback
    upperback thorax
    thorax lowerneck lclavicle rclavicle
    lowerneck upperneck
    upperneck head
    lclavicle lhumerus
    lhumerus lradius
    lradius lwrist
    lwrist lhand lthumb
    lhand lfingers
    rclavicle rhumerus
    rhumerus rradius
    rradius rwrist
    rwrist rhand rthumb
    rhand rfingers
  end

#!OML:ASF I:\salsa\salsa 7_09\Patient 1\Session 1\dancerfemale.ASF
:FULLY-SPECIFIED
:DEGREES
920
root -3.18045 16.343 1.77483 168.531 814.711 159.653
lowerback 1.96788 -1.6572 0.457416
upperback -7.7672 -2.06955 -0.583661
thorax -9.32865 -0.997939 -0.678483
lowerneck 3.61264 -4.66094 -4.77662
upperneck 12.6694 -7.20819 12.5287
head 3.77037 -3.15981 4.46978
rclavicle -3.66261e-014 -1.66979e-014
rhumerus -41.3849 16.2672 -109.058
rradius 97.2051
rwrist -33.8489
rhand 13.4001 -363.379
rfingers 7.12502
rthumb 38.3436 -29.0838
lclavicle -3.66261e-014 -1.66979e-014
lhumerus -34.3883 -29.386 85.8543
lradius 71.5909
lwrist -30.5914
lhand -38.2963 17.716
lfingers 7.12502
lthumb -11.3251 -312.61
rfemur -23.8752 -0.164711 14.9208
rtibia 45.1529
rfoot -14.0394 -8.18414
rtoes -20.7463
lfemur -22.4781 11.2409 -30.7144
ltibia 43.1139
lfoot -14.5856 11.73
ltoes -28.1766
921
root -3.29977 16.3256 1.78237 174.054 819.259 165.068
lowerback 1.87149 -1.21356 1.11645
upperback -7.82603 -1.45104 -0.817429
thorax -9.35207 -0.757638 -1.35801
lowerneck 2.83373 -3.68644 -4.27123
upperneck 13.5893 -5.97674 12.6726
head 4.052 -2.46271 4.46146
rclavicle 3.57812e-015 6.36111e-015
rhumerus -41.5087 17.341 -110.221
rradius 96.3394
rwrist -27.8147
rhand 13.7348 -362.746
rfingers 7.12502
rthumb 38.6594 -28.3629
lclavicle 3.57812e-015 6.36111e-015
lhumerus -35.8109 -25.544 86.176
lradius 71.016
lwrist -30.704
lhand -40.7493 19.9885
lfingers 7.12502
lthumb -13.6901 -310.482
rfemur -23.289 -1.78841 14.841
rtibia 45.8707
rfoot -12.7098 -8.07936
rtoes -20.6812
lfemur -24.069 13.4385 -30.5604
ltibia 44.5214
lfoot -15.2385 13.6108
ltoes -28.3167
922
root -3.41517 16.337 1.79912 177.916 823.346 168.931
lowerback 1.93844 -0.838709 1.00076
upperback -7.93679 -0.979593 -1.10722
thorax -9.50191 -0.534065 -1.6474
lowerneck 2.18377 -2.75201 -3.38655
upperneck 14.4479 -4.77519 12.5557
head 4.2921 -1.77606 4.31488
rclavicle -4.36332e-014 -1.51076e-014
rhumerus -41.8763 18.0983 -111.076
rradius 95.3522
rwrist -20.6786
rhand 14.5795 -360.221
rfingers 7.12502
rthumb 39.4557 -25.6088
lclavicle -4.36332e-014 -1.51076e-014
lhumerus -37.1464 -21.7906 86.3462
lradius 70.6988
lwrist -30.6174
lhand -41.037 20.0637
lfingers 7.12502
lthumb -13.9673 -310.425
rfemur -22.5022 -3.6053 14.0879
rtibia 46.2716
rfoot -10.8093 -6.86497
rtoes -20.2951
lfemur -25.2159 15.5231 -30.8624
ltibia 45.3496
lfoot -15.5695 15.1827
ltoes -28.7764
923
root -3.52441 16.372 1.8245 179.911 826.908 171.187
lowerback 2.07684 -0.619157 0.480516
upperback -7.90788 -0.739199 -1.23785
thorax -9.53554 -0.38657 -1.51786
lowerneck 1.70507 -1.80149 -2.79585
upperneck 15.0903 -3.54814 12.5139
head 4.45497 -1.10397 4.24803
rclavicle -3.57812e-015 -8.74653e-015
rhumerus -42.1786 18.1981 -111.022
rradius 93.0806
rwrist -6.77115
rhand 16.2724 -350.413
rfingers 7.12502
rthumb 41.048 -15.3141
lclavicle -3.57812e-015 -8.74653e-015
lhumerus -38.125 -17.8086 86.3844
lradius 70.4858
lwrist -30.495
lhand -38.7806 16.2688
lfingers 7.12502
lthumb -11.7921 -314.083
rfemur -21.1785 -5.3249 13.2485
rtibia 46.2872
rfoot -8.2991 -5.58352
rtoes -18.5366
lfemur -25.7144 17.2408 -31.0344
ltibia 45.6015
lfoot -15.7803 16.6475
ltoes -29.24
924
root -3.63012 16.4102 1.85138 180.624 830.055 172.28
lowerback 2.13016 -0.472096 0.107807
upperback -7.72688 -0.58746 -1.33992
thorax -9.35767 -0.292967 -1.43089
lowerneck 1.25143 -0.878505 -2.28991
upperneck 15.5838 -2.35474 12.5076
head 4.5814 -0.459076 4.20736
rclavicle 4.42296e-014 5.56597e-015
rhumerus -42.4215 18.1675 -110.668
rradius 91.0687
rwrist 5.41665
rhand 12.5851 -341.529
rfingers 7.12502
rthumb 37.5739 -7.44327
lclavicle 4.42296e-014 5.56597e-015
lhumerus -38.7956 -14.0446 86.1642
lradius 70.4506
lwrist -30.1895
lhand -41.1427 19.694
lfingers 7.12502
lthumb -14.0691 -310.802
rfemur -19.5219 -6.38819 12.5761
rtibia 45.9128
rfoot -5.50413 -3.59452
rtoes -17.0113
lfemur -25.7646 17.9264 -30.9182
ltibia 45.4905
lfoot -16.1693 18.5883
ltoes -29.3549
925
root -3.74537 16.4572 1.88502 180.715 833.299 172.561
lowerback 2.11236 -0.221646 -0.130995
upperback -7.60435 -0.279917 -1.39648
thorax -9.20161 -0.130565 -1.38647
lowerneck 0.823007 -0.0246671 -1.90523
upperneck 16.0004 -1.26153 12.602
head 4.69527 0.131476 4.21821
rclavicle -4.42296e-014 -3.33958e-014
rhumerus -42.3517 17.7986 -109.782
rradius 90.471
rwrist 13.5009
rhand 11.9553 -337.16
rfingers 7.12502
rthumb 36.9784 -3.2301
lclavicle -4.42296e-014 -3.33958e-014
lhumerus -39.4352 -10.671 85.7368
lradius 70.6864
lwrist -29.8482
lhand -40.4869 17.2293
lfingers 7.12502
lthumb -13.4371 -313.224
rfemur -18.0402 -6.2563 12.3501
rtibia 45.2109
rfoot -2.82205 -2.32108
rtoes -17.5488
lfemur -25.8321 18.1791 -30.5152
ltibia 45.2099
lfoot -16.7407 20.8677
ltoes -29.0052
926
root -3.85538 16.5097 1.91801 180.506 836.206 172.337
lowerback 1.93767 -0.0178297 -0.129674
upperback -7.58046 -0.00844328 -1.39045
thorax -9.0647 0.000928604 -1.40616
lowerneck 0.488773 0.793565 -1.71805
upperneck 16.359 -0.21959 12.8206
head 4.78113 0.687744 4.30212
rclavicle -4.07509e-015 -1.59028e-014
rhumerus -42.6113 18.386 -109.57
rradius 91.0761
rwrist 11.6126
rhand 13.6757 -338.356
rfingers 7.12502
rthumb 38.6036 -3.98792
lclavicle -4.07509e-015 -1.59028e-014
lhumerus -40.1971 -7.7257 85.3241
lradius 71.0441
lwrist -29.2616
lhand -41.0109 18.986
lfingers 7.12502
lthumb -13.9421 -311.501
rfemur -16.5839 -5.68999 12.4911
rtibia 44.2431
rfoot -0.907411 -1.12634
rtoes -19.8463
lfemur -25.9613 17.9285 -29.9304
ltibia 44.8525
lfoot -17.4326 23.4422
ltoes -27.5704
927
root -3.95688 16.5565 1.95236 180.482 838.707 172.131
lowerback 1.47952 0.102386 -0.030822
upperback -7.58027 0.162346 -1.37859
thorax -8.78863 0.0785216 -1.46124
lowerneck 0.179028 1.61076 -1.29165
upperneck 16.7323 0.849285 12.7253
head 4.8728 1.25261 4.24832
rclavicle -3.07122e-014 -1.43125e-014
rhumerus -42.9432 19.477 -109.679
rradius 91.7323
rwrist 6.50266
rhand 14.2522 -340.932
rfingers 7.12502
rthumb 39.1473 -6.40962
lclavicle -3.07122e-014 -1.43125e-014
lhumerus -40.9272 -5.23268 84.8651
lradius 71.4281
lwrist -28.4309
lhand -41.9507 20.3948
lfingers 7.12502
lthumb -14.8477 -310.157
rfemur -15.1529 -5.14437 12.7286
rtibia 43.0686
rfoot 0.443088 0.403216
rtoes -22.7057
lfemur -26.1833 17.4096 -29.352
ltibia 44.4614
lfoot -18.3707 25.8488
ltoes -25.2298
928
root -4.07266 16.6116 1.99976 180.621 841.003 171.742
lowerback 0.761138 0.140064 -0.0155387
upperback -7.62463 0.228307 -1.25565
thorax -8.41151 0.117136 -1.3398
lowerneck -0.126369 2.45995 -1.02867
upperneck 17.0119 1.97633 12.6048
head 4.93452 1.82784 4.21582
rclavicle -6.55989e-015 3.18055e-015
rhumerus -42.8957 20.4602 -109.437
rradius 92.3959
rwrist 1.56822
rhand 15.3907 -343.353
rfingers 7.12502
rthumb 40.2193 -8.51278
lclavicle -6.55989e-015 3.18055e-015
lhumerus -41.4651 -2.92604 84.167
lradius 71.8269
lwrist -27.9324
lhand -43.2605 21.3446
lfingers 7.12502
lthumb -16.1092 -309.305
rfemur -14.0266 -4.50481 13.2708
rtibia 41.6418
rfoot 2.03161 2.17776
rtoes -25.182
lfemur -26.8436 17.7134 -28.7282
ltibia 44.0906
lfoot -18.8737 27.2751
ltoes -24.0391
929
root -4.19541 16.6602 2.06134 180.694 843.255 171.121
lowerback -0.097339 0.188769 0.0335231
upperback -7.6851 0.316592 -1.04976
thorax -7.97178 0.168397 -1.15017
lowerneck -0.375727 3.24936 -1.00254
upperneck 17.1207 3.03535 12.569
head 4.93571 2.35001 4.24293
rclavicle 9.93923e-016 -1.59028e-015
rhumerus -42.4851 21.003 -108.708
rradius 92.9085
rwrist -1.77102
rhand 17.4605 -344.677
rfingers 7.12502
rthumb 42.1624 -9.21263
lclavicle 9.93923e-016 -1.59028e-015
lhumerus -41.923 -1.04266 83.3539
lradius 72.2389
lwrist -27.7177
lhand -43.902 22.4741
lfingers 7.12502
lthumb -16.7268 -308.226
rfemur -12.9947 -3.80289 14.0872
rtibia 39.9585
rfoot 4.45671 3.9075
rtoes -26.7643
lfemur -27.7086 18.1968 -27.9397
ltibia 43.9053
lfoot -19.1588 28.7174
ltoes -23.4642
930
root -4.32412 16.6934 2.12452 180.454 845.178 170.324
lowerback -0.624595 0.311767 0.297165
upperback -7.76277 0.503837 -0.909924
thorax -7.74365 0.25029 -1.1585
lowerneck -0.525575 3.85178 -0.754742
upperneck 17.1882 3.85414 12.3986
head 4.93583 2.75753 4.17942
rclavicle -3.24019e-014 -7.95139e-015
rhumerus -42.1189 21.1845 -107.964
rradius 92.4866
rwrist -0.852763
rhand 15.8989 -342.604
rfingers 7.12502
rthumb 40.6971 -7.6158
lclavicle -3.24019e-014 -7.95139e-015
lhumerus -42.3371 -0.0855079 82.6507
lradius 72.6169
lwrist -27.454
lhand -44.2112 24.2994
lfingers 7.12502
lthumb -17.0245 -306.427
rfemur -11.6331 -3.31336 15.0526
rtibia 37.9344
rfoot 8.0436 5.23865
rtoes -26.5626
lfemur -28.4837 18.5227 -26.9428
ltibia 44.0261
lfoot -19.7299 29.8446
ltoes -21.9812
931
root -4.46028 16.704 2.18735 179.75 846.786 169.335
lowerback -0.657464 0.514205 0.867208
upperback -7.81214 0.797741 -0.865827
thorax -7.76639 0.358078 -1.44894
lowerneck -0.803032 4.32121 -0.529863
upperneck 17.4597 4.45494 12.401
head 5.03332 3.08246 4.17964
rclavicle -8.01102e-014 -1.74931e-014
rhumerus -41.8092 20.8837 -107.116
rradius 91.9765
rwrist 1.53789
rhand 14.3215 -339.936
rfingers 7.12502
rthumb 39.2126 -5.39517
lclavicle -8.01102e-014 -1.74931e-014
lhumerus -42.6895 0.117781 81.9622
lradius 73.0082
lwrist -27.0579
lhand -44.6461 26.0924
lfingers 7.12502
lthumb -17.4431 -304.67
rfemur -9.78492 -2.94273 16.1752
rtibia 35.5232
rfoot 12.6549 5.82015
rtoes -23.3959
lfemur -29.0562 18.9408 -25.7156
ltibia 44.5221
lfoot -20.4448 30.4274
ltoes -20.4489
932
root -4.60465 16.6967 2.25008 178.936 848.056 168.293
lowerback -0.491245 0.676941 1.69514
upperback -7.82959 1.04207 -0.937957
thorax -7.86364 0.417575 -2.00591
lowerneck -1.26279 4.76423 -0.384848
upperneck 17.7695 4.98484 12.6325
head 5.17029 3.38983 4.2726
rclavicle -2.38542e-014 -2.8625e-014
rhumerus -41.6192 20.5866 -106.54
rradius 91.5101
rwrist 4.1735
rhand 12.2336 -337.481
rfingers 7.12502
rthumb 37.2416 -3.48252
lclavicle -2.38542e-014 -2.8625e-014
lhumerus -42.9283 -0.0825746 81.0788
lradius 73.5546
lwrist -26.4382
lhand -44.5629 27.314
lfingers 7.12502
lthumb -17.363 -303.442
rfemur -7.59174 -2.64566 17.3848
rtibia 32.6603
rfoot 15.6631 4.77174
rtoes -25.0333
lfemur -29.6971 19.6516 -24.4576
ltibia 45.3082
lfoot -20.8501 30.7751
ltoes -20.1838
933
root -4.754 16.6819 2.31161 178.359 848.933 167.397
lowerback -0.326348 0.762837 2.59395
upperback -7.87265 1.18503 -1.10763
thorax -7.98716 0.41705 -2.70124
lowerneck -1.6667 5.18672 -0.199687
upperneck 17.8617 5.51085 12.778
head 5.23513 3.6813 4.32381
rclavicle 6.04305e-014 9.54166e-015
rhumerus -41.5812 20.4499 -106.305
rradius 91.0973
rwrist 5.82476
rhand 10.323 -335.955
rfingers 7.12502
rthumb 35.4327 -2.4091
lclavicle 6.04305e-014 9.54166e-015
lhumerus -43.0559 -0.396089 79.9943
lradius 74.1974
lwrist -25.4719
lhand -43.6679 27.3098
lfingers 7.12502
lthumb -16.5015 -303.372
rfemur -5.26207 -2.42078 18.5522
rtibia 29.3543
rfoot 16.4339 3.84133
rtoes -21.1217
lfemur -30.5917 20.5812 -23.3745
ltibia 46.2479
lfoot -21.2356 30.5858
ltoes -21.4127
934
root -4.91256 16.6602 2.37054 178.291 849.346 166.916
lowerback -0.164092 0.78574 3.14848
upperback -7.99729 1.23467 -1.301
thorax -8.20719 0.389859 -3.22636
lowerneck -2.0391 5.55388 -0.121844
upperneck 17.8287 5.99779 12.7669
head 5.26004 3.92918 4.33699
rclavicle 1.19271e-015 2.8625e-014
rhumerus -41.6555 20.252 -105.992
rradius 90.7552
rwrist 5.48413
rhand 10.4753 -334.746
rfingers 7.12502
rthumb 35.577 -1.16486
lclavicle 1.19271e-015 2.8625e-014
lhumerus -43.1329 -0.722658 78.9978
lradius 74.7744
lwrist -24.6548
lhand -43.6105 28.6287
lfingers 7.12502
lthumb -16.4463 -302.048
rfemur -3.24031 -2.50475 19.5205
rtibia 25.8299
rfoot 14.2397 3.65958
rtoes -19.8194
lfemur -31.835 21.5562 -22.768
ltibia 47.1884
lfoot -21.4571 29.9667
ltoes -23.0606
